# xmcd
#
# Track frame offsets: 
#        150
#        19165
#        35180
#        56512
#        78703
#        103186
#        126629
#        154406
#        177991
#        196911
#        212864
#        231309
#        248354
#        266210
#        284898
#        309205
#
# Disc length: 4341 seconds
#
# Revision: 0
# Processed by: cddbd v1.5.2PL0 Copyright (c) Steve Scherf et al.
# Submitted via: ExactAudioCopy v0.95b4
#
DISCID=f710f310
DTITLE=JIM SUHLER and THE MONKEY BEAT - Tijuana Bible
DYEAR=2007
DGENRE=
TTITLE0=Tijuana Bible
TTITLE1=The Devil In Me
TTITLE2=Drunken Hearted Boy
TTITLE3=Up To My Neck In
TTITLE4=Long Hot Summer
TTITLE5=Black Sky 
TTITLE6=Deep Water Lullaby
TTITLE7=Years Of Tears
TTITLE8=Po Lightnin'
TTITLE9=Border Rock
TTITLE10=Mexical Run
TTITLE11=Sunday Drunk
TTITLE12=Chaos In Tejas
TTITLE13=Juice
TTITLE14=I Could've Had Religion
TTITLE15=Cold Light Of
EXTD=
EXTT0=
EXTT1=
EXTT2=
EXTT3=
EXTT4=
EXTT5=
EXTT6=
EXTT7=
EXTT8=
EXTT9=
EXTT10=
EXTT11=
EXTT12=
EXTT13=
EXTT14=
EXTT15=
PLAYORDER=
